<?xml version="1.0" standalone="no"?>
<!DOCTYPE svg PUBLIC "-//W3C//DTD SVG 20010904//EN"
 "http://www.w3.org/TR/2001/REC-SVG-20010904/DTD/svg10.dtd">
<svg version="1.0" xmlns="http://www.w3.org/2000/svg"
 width="715.000000pt" height="704.000000pt" viewBox="0 0 715.000000 704.000000"
 preserveAspectRatio="xMidYMid meet">
<metadata>
Created by potrace 1.16, written by Peter Selinger 2001-2019
</metadata>
<g transform="translate(0.000000,704.000000) scale(0.100000,-0.100000)"
fill="#49423A" stroke="none">
<path d="M4125 6834 c-411 -44 -770 -145 -1170 -332 -1030 -482 -1788 -1229
-2300 -2267 -322 -654 -469 -1187 -452 -1645 6 -163 25 -248 83 -365 89 -183
223 -256 357 -197 96 42 327 307 562 642 369 527 651 761 1165 968 402 162
724 217 1355 232 323 8 388 12 510 34 375 66 665 200 920 424 101 88 369 382
489 536 204 262 308 456 373 694 33 124 37 310 9 412 -41 150 -137 288 -286
411 -284 236 -605 375 -1000 434 -111 17 -516 29 -615 19z M6420 4993 c-96
-35 -238 -220 -370 -483 -303 -603 -810 -956 -1593 -1109 -222 -44 -392 -60
-714 -71 -440 -14 -702 -53 -996 -150 -240 -79 -519 -225 -687 -359 -210 -166
-591 -581 -742 -806 -262 -391 -321 -787 -163 -1094 105 -204 285 -354 601
-502 549 -257 1162 -284 1859 -82 916 265 1831 955 2463 1858 301 430 611
1056 771 1559 111 348 129 656 51 889 -39 116 -67 161 -147 241 -109 109 -227
148 -333 109z"/>
</g>
</svg>
