<?xml version="1.0" standalone="no"?>
<!DOCTYPE svg PUBLIC "-//W3C//DTD SVG 20010904//EN"
 "http://www.w3.org/TR/2001/REC-SVG-20010904/DTD/svg10.dtd">
<svg version="1.0" xmlns="http://www.w3.org/2000/svg"
 width="590.000000pt" height="824.000000pt" viewBox="0 0 590.000000 824.000000"
 preserveAspectRatio="xMidYMid meet">
<metadata>
Created by potrace 1.16, written by Peter Selinger 2001-2019
</metadata>
<g transform="translate(0.000000,824.000000) scale(0.100000,-0.100000)"
fill="#49423A" stroke="none">
<path d="M2832 8021 c-86 -32 -134 -65 -208 -143 -91 -96 -123 -159 -254 -508
-198 -524 -310 -784 -462 -1065 -196 -362 -315 -538 -808 -1195 -146 -195
-296 -398 -332 -450 -299 -429 -464 -836 -543 -1340 -23 -141 -32 -576 -16
-736 52 -515 277 -1014 643 -1424 499 -559 1179 -892 1943 -950 308 -24 677
28 1019 144 458 155 811 378 1146 722 207 213 350 412 474 662 163 327 234
595 258 966 36 576 -98 1165 -376 1652 -110 192 -197 318 -486 704 -353 471
-461 621 -586 810 -261 397 -438 759 -673 1376 -170 443 -182 472 -223 535
-60 93 -144 171 -233 215 -96 48 -198 56 -283 25z m213 -986 c122 -324 199
-504 335 -780 234 -474 403 -739 879 -1379 581 -780 631 -860 747 -1211 91
-278 128 -507 128 -795 -1 -291 -43 -507 -150 -757 -255 -599 -794 -1066
-1453 -1262 -56 -17 -141 -38 -188 -47 -186 -34 -618 -34 -798 0 -241 47 -532
163 -759 304 -557 344 -924 886 -1012 1492 -23 159 -15 504 15 673 65 366 187
678 373 957 46 69 221 310 389 535 455 611 522 706 686 980 241 402 425 792
624 1323 48 129 86 217 90 210 4 -7 46 -116 94 -243z"/>
</g>
</svg>
